<svg data-v-16b37f8c="" fill="currentColor" viewBox="0 0 23 23" height="23" width="23" xmlns="http://www.w3.org/2000/svg" class="svg-icon">
<path xmlns="http://www.w3.org/2000/svg" d="M22.4394 4.17693H17.137C17.7188 3.32247 17.775 2.16883 17.1878 1.2416C16.3998 -0.00282681 14.7457 -0.374331 13.5013 0.413644C13.1864 0.613097 12.6608 1.07943 11.7363 2.8184C11.6536 2.97428 11.5745 3.12701 11.5 3.27391C11.4254 3.12701 11.3463 2.97428 11.2637 2.8184C10.3391 1.07939 9.81355 0.613097 9.4986 0.413644C8.25422 -0.374331 6.60011 -0.00278191 5.81214 1.2416C5.4303 1.8445 5.30627 2.5601 5.46264 3.25643C5.53766 3.5911 5.67333 3.90201 5.8611 4.17693H0.560547V10.7003H1.34852V23H21.6514V10.7003H22.4394V4.17693ZM14.2219 1.5525C14.4366 1.41639 14.6801 1.34676 14.9281 1.34676C15.0252 1.34676 15.1235 1.35754 15.2206 1.3791C15.5656 1.45682 15.8599 1.66391 16.0494 1.96268C16.4398 2.57951 16.2556 3.39933 15.6388 3.78975C15.2678 4.02514 13.9075 4.15631 12.553 4.17652C13.1505 2.9608 13.8509 1.78744 14.2219 1.5525ZM6.95055 1.96259C7.14012 1.66386 7.4344 1.45677 7.7794 1.37901C7.87643 1.35745 7.97481 1.34667 8.07184 1.34667C8.31981 1.34667 8.56328 1.4163 8.77806 1.55241C9.14911 1.78735 9.84949 2.96076 10.447 4.17643C9.76998 4.1661 9.09121 4.12837 8.53548 4.06368C7.97975 3.99899 7.5467 3.90735 7.36118 3.78966C7.06245 3.60054 6.85486 3.3063 6.7776 2.96125C6.69984 2.61625 6.76138 2.26137 6.95055 1.96259ZM8.77307 21.6523H2.69622V10.7003H8.77307V21.6523ZM8.77307 9.3526H1.90829V5.52463H8.77312V9.3526H8.77307ZM12.8792 21.6523H10.1208V5.52463H12.8792V21.6523ZM20.3037 21.6523H14.2269V10.7003H20.3037V21.6523ZM21.0917 9.3526H14.2269V5.52463H21.0917V9.3526Z" fill="#969696"></path>
</svg>