<svg data-v-16b37f8c="" fill="currentColor" viewBox="0 0 21 22" height="22" width="21" xmlns="http://www.w3.org/2000/svg" class="svg-icon">
<g xmlns="http://www.w3.org/2000/svg" clip-path="url(#clip0)">
<path d="M20.4243 10.7629C20.3118 10.4978 20.1994 10.2326 20.0869 9.96746C19.8524 9.41 19.6095 8.83554 19.3919 8.26788C19.3216 8.06104 19.1988 7.87633 19.0358 7.73204C18.8728 7.58774 18.6752 7.48892 18.4626 7.44532C17.97 7.31841 17.478 7.18924 16.9866 7.05781L15.9307 6.78076C15.6743 6.71447 15.4162 6.65161 15.1581 6.58872L14.62 6.45615L14.5931 6.64142C14.4683 7.5201 14.5222 7.60846 15.2998 7.80731C15.3285 7.8158 15.3588 7.82092 15.3892 7.82772L15.4769 7.84809L16.6139 8.15403L16.1078 8.32398C14.308 8.93583 12.4458 9.56976 10.6105 10.1833C10.4942 10.2113 10.3725 10.2049 10.2598 10.1646C8.47177 9.55959 6.65506 8.93754 4.89912 8.33759L4.32727 8.14042C4.87885 7.97046 5.42707 7.8226 5.98877 7.67984C6.73939 7.48779 6.81865 7.4368 6.69215 6.49014L6.66686 6.2998L5.46248 6.6176C4.26149 6.93372 3.12802 7.23115 1.97089 7.55407C1.8556 7.59826 1.75089 7.66652 1.66367 7.7544C1.57646 7.84228 1.5087 7.94778 1.46485 8.06394C1.16966 8.88994 0.893032 9.73631 0.621461 10.5555L0.479715 10.9872C0.44638 11.0651 0.430225 11.1494 0.432356 11.2342C0.434488 11.319 0.454864 11.4023 0.492069 11.4784C0.529274 11.5546 0.582467 11.6216 0.647899 11.675C0.71333 11.7284 0.789486 11.7668 0.871101 11.7877C0.945319 11.8149 1.02124 11.8455 1.09546 11.8761C1.26398 11.9484 1.43692 12.0097 1.61327 12.0596C1.79375 12.1072 1.85447 12.1667 1.85278 12.4267C1.85278 13.6351 1.85278 14.8622 1.85278 16.0502C1.85278 16.9 1.85278 17.7498 1.85278 18.5996C1.85278 18.8732 1.90843 19.2046 2.34531 19.3542C3.22918 19.6516 4.10967 19.9542 4.99186 20.255C6.61791 20.8108 8.29967 21.3852 9.95946 21.9359C10.1047 21.9815 10.2561 22.0038 10.4082 22.0022C10.5945 22.0031 10.7797 21.9732 10.9564 21.9138C12.3058 21.4498 13.6687 20.9688 14.9894 20.5031C16.0926 20.1145 17.1957 19.727 18.2989 19.3406C18.756 19.1809 18.95 18.9072 18.945 18.4228C18.9348 17.2824 18.9348 16.125 18.9348 15.0033C18.9348 14.1365 18.9348 13.268 18.9348 12.4013C18.9348 12.1973 18.9702 12.1599 19.1187 12.126C19.3356 12.071 19.5491 12.0029 19.758 11.922C19.8187 11.8999 19.8795 11.8761 19.9419 11.8557C20.2168 11.7571 20.4479 11.6602 20.5406 11.4614C20.6334 11.2625 20.5305 11.0263 20.4243 10.7629ZM12.5048 14.4102L17.5263 12.6868C17.6141 12.6562 17.695 12.629 17.7962 12.6001C17.7962 12.6358 17.7962 12.6681 17.7962 12.7021V14.3286C17.7962 15.5829 17.7962 16.8371 17.7962 18.0914C17.7962 18.2716 17.7693 18.3141 17.6276 18.3651C16.042 18.9157 14.4581 19.4715 12.8759 20.0323L11.0879 20.6612L11.0441 20.6748V13.3666C11.1386 13.5553 11.2313 13.7422 11.324 13.9309C11.653 14.6005 11.7913 14.6549 12.4964 14.4102H12.5048ZM19.2368 10.8784L12.2906 13.285L11.2516 11.181L18.3647 8.77095L19.2368 10.8784ZM9.65587 11.1674L8.71464 13.5111L1.72125 10.8819L2.49043 8.61971L9.65587 11.1674ZM2.96945 14.2419V12.5797L3.38777 12.7361L4.86205 13.2816L6.36492 13.8442L8.52232 14.6481C9.25944 14.9217 9.40112 14.8605 9.69294 14.1382C9.75704 13.9785 9.81947 13.8255 9.88525 13.6776V20.719L5.73073 19.3016C4.87609 19.007 4.0203 18.7146 3.16341 18.4245C2.98461 18.3651 2.96101 18.3413 2.96269 18.2155C2.96775 16.8898 2.96772 15.5659 2.96772 14.2419H2.96945Z" fill="black"></path>
<path d="M7.62664 4.88444C7.79532 5.0459 7.964 5.21247 8.13268 5.36883C8.18732 5.40927 8.22805 5.46589 8.24922 5.53078C8.27039 5.59568 8.27096 5.66561 8.25078 5.73082C8.17656 6.09793 8.11413 6.46503 8.05509 6.82024C8.02979 6.9613 8.00787 7.099 7.98426 7.23496V7.25704C7.97428 7.43011 8.00877 7.60286 8.08441 7.75857C8.16006 7.91428 8.27431 8.04768 8.41608 8.14591C8.55127 8.2359 8.70714 8.28928 8.86875 8.30089C9.03036 8.3125 9.19222 8.28198 9.33871 8.21222C9.7351 8.02697 10.1534 7.8043 10.6561 7.51197C10.7168 7.46991 10.7891 7.44823 10.8627 7.45007C10.9364 7.4519 11.0075 7.47715 11.066 7.52218C11.3292 7.67344 11.6024 7.81451 11.8672 7.95218L12.3092 8.1833C12.4553 8.26544 12.6193 8.30982 12.7866 8.31247C12.9787 8.31102 13.1654 8.24795 13.3195 8.13234C13.4753 8.02781 13.5958 7.87799 13.665 7.70284C13.7343 7.5277 13.7492 7.3355 13.7075 7.15169L13.6704 6.93754C13.5962 6.52964 13.522 6.10984 13.4731 5.69684C13.4702 5.5963 13.5031 5.49802 13.5658 5.41979C13.8424 5.11896 14.146 4.82836 14.4378 4.54793L14.556 4.43577C14.8933 4.11285 14.9945 3.75592 14.8613 3.35312C14.728 2.95032 14.4463 2.76166 13.9976 2.70217L13.9318 2.69371C13.5 2.63762 13.0547 2.57981 12.6246 2.49483C12.5276 2.46875 12.4433 2.40843 12.3868 2.32487C12.1793 1.94757 11.9904 1.54989 11.8099 1.16409L11.7509 1.03998C11.6788 0.859153 11.5539 0.704655 11.3927 0.596915C11.2316 0.489174 11.0418 0.433304 10.8484 0.436667C10.6614 0.434634 10.4781 0.489481 10.3225 0.594093C10.1669 0.698706 10.0463 0.848207 9.97636 1.02301C9.88865 1.20996 9.7959 1.39692 9.70481 1.58218C9.59011 1.81332 9.47203 2.05295 9.36745 2.29259C9.29998 2.44215 9.24258 2.48804 9.10258 2.50163C8.8445 2.52713 8.58641 2.56964 8.33677 2.60873C8.1411 2.64102 7.94548 2.67157 7.74813 2.69707C7.26571 2.75655 6.96042 2.99622 6.84066 3.40922C6.72933 3.79502 6.8406 4.14174 7.20495 4.46975C7.34326 4.60572 7.48495 4.74507 7.62664 4.88444ZM12.3277 5.85999C12.3986 6.17272 12.4492 6.49563 12.4964 6.83725L12.5217 7.00721L12.353 6.91542C12.0275 6.74546 11.7188 6.58742 11.4203 6.42256C11.2466 6.322 11.0504 6.26758 10.8501 6.26447C10.6371 6.26754 10.4284 6.32609 10.2445 6.43443C9.95609 6.60439 9.65755 6.75567 9.34044 6.91882L9.18016 7.0021C9.18859 6.95112 9.19536 6.90014 9.2038 6.84916C9.2544 6.50924 9.30332 6.1999 9.37248 5.89568C9.43797 5.66417 9.43525 5.41846 9.36457 5.1885C9.29389 4.95855 9.15832 4.75431 8.97442 4.60062C8.74333 4.39158 8.52742 4.15702 8.29971 3.91059L8.18835 3.78822L8.32837 3.76611C8.65729 3.71512 8.96933 3.66583 9.28138 3.63524C9.51419 3.62373 9.73869 3.54461 9.92785 3.40739C10.117 3.27018 10.2627 3.08076 10.3474 2.86196C10.4739 2.56624 10.6224 2.2722 10.7776 1.96118C10.8034 1.91359 10.8287 1.86428 10.8534 1.8133C10.877 1.86258 10.9024 1.91189 10.926 1.95948C11.0862 2.2773 11.238 2.57641 11.373 2.88063C11.4576 3.09242 11.6002 3.27563 11.7841 3.40893C11.9681 3.54223 12.1859 3.62011 12.4121 3.63353C12.7359 3.66753 13.053 3.71682 13.3887 3.77121L13.5085 3.78992L13.4174 3.89017C13.1947 4.13491 12.9838 4.36775 12.7544 4.57C12.5657 4.71926 12.4247 4.92108 12.3488 5.15041C12.2729 5.37974 12.2656 5.62649 12.3277 5.85999Z" fill="black"></path>
</g>
<defs xmlns="http://www.w3.org/2000/svg">
<clipPath id="clip0">
<rect width="20.125" height="21.5625" fill="white" transform="translate(0.4375 0.4375)"></rect>
</clipPath>
</defs>
</svg>