<svg fill="#474747" viewBox="0 0 16 16" height="16" width="16" xmlns="http://www.w3.org/2000/svg" alt="copy" class="svg-icon black cursor-pointer ml-3">
<path xmlns="http://www.w3.org/2000/svg" d="M14.0966 3.99231H11.868V1.92715C11.8677 1.41639 11.6671 0.926629 11.3102 0.565341C10.9534 0.204052 10.4695 0.000738485 9.96468 0H1.90473C1.39979 0.000737738 0.915736 0.204007 0.558688 0.565256C0.20164 0.926504 0.000729159 1.41627 0 1.92715V10.0819C0.000729897 10.5927 0.201685 11.0823 0.558773 11.4433C0.91586 11.8043 1.39991 12.0073 1.90473 12.0076H4.13197V14.0742C4.13269 14.5848 4.33346 15.0741 4.69025 15.4351C5.04704 15.7961 5.53074 15.9993 6.03532 16H14.0966C14.6012 15.9993 15.0849 15.7961 15.4417 15.4351C15.7985 15.0741 15.9993 14.5848 16 14.0742V5.91807C15.9993 5.40755 15.7985 4.91817 15.4417 4.55718C15.0849 4.19619 14.6012 3.99305 14.0966 3.99231ZM1.90473 10.7526C1.72878 10.7526 1.56002 10.682 1.43548 10.5563C1.31093 10.4305 1.24078 10.2599 1.24042 10.0819V1.92715C1.24042 1.74889 1.31041 1.57792 1.43499 1.45187C1.55957 1.32582 1.72854 1.25501 1.90473 1.25501H9.96468C10.1406 1.25538 10.3092 1.32636 10.4335 1.45237C10.5578 1.57837 10.6276 1.74913 10.6276 1.92715V3.99231H6.03532C5.53074 3.99305 5.04704 4.19619 4.69025 4.55718C4.33346 4.91817 4.13269 5.40755 4.13197 5.91807V10.7526H1.90473ZM14.7596 14.0742C14.7592 14.252 14.6893 14.4224 14.565 14.5481C14.4408 14.6738 14.2724 14.7446 14.0966 14.745H6.03532C5.85961 14.7446 5.6912 14.6738 5.56695 14.5481C5.44271 14.4224 5.37275 14.252 5.37238 14.0742V5.91807C5.37275 5.74029 5.44271 5.56991 5.56695 5.4442C5.6912 5.3185 5.85961 5.24769 6.03532 5.24732H14.0966C14.2724 5.24769 14.4408 5.3185 14.565 5.4442C14.6893 5.56991 14.7592 5.74029 14.7596 5.91807V14.0742Z" fill="black"></path>
</svg>