<svg data-v-16b37f8c="" fill="currentColor" viewBox="0 0 19 20" height="20" width="19" xmlns="http://www.w3.org/2000/svg" class="svg-icon">
<path xmlns="http://www.w3.org/2000/svg" fill-rule="evenodd" clip-rule="evenodd" d="M13.6081 0.5C16.6838 0.5 18.75 2.60626 18.75 5.74072V14.7371C18.75 17.8989 16.7474 19.9553 13.6482 19.9749L6.1222 19.9778C3.04644 19.9778 0.979309 17.8715 0.979309 14.7371V5.74072C0.979309 2.57789 2.98187 0.522501 6.08111 0.503913L13.6071 0.5H13.6081ZM13.6081 1.96744L6.086 1.97135C3.80853 1.98505 2.44675 3.39379 2.44675 5.74072V14.7371C2.44675 17.0997 3.82125 18.5104 6.12122 18.5104L13.6433 18.5074C15.9208 18.4937 17.2826 17.083 17.2826 14.7371V5.74072C17.2826 3.37814 15.909 1.96744 13.6081 1.96744ZM13.4194 13.6812C13.8244 13.6812 14.1531 14.0099 14.1531 14.4149C14.1531 14.82 13.8244 15.1487 13.4194 15.1487H6.35611C5.95109 15.1487 5.62239 14.82 5.62239 14.4149C5.62239 14.0099 5.95109 13.6812 6.35611 13.6812H13.4194ZM13.4194 9.5856C13.8244 9.5856 14.1531 9.91431 14.1531 10.3193C14.1531 10.7243 13.8244 11.053 13.4194 11.053H6.35611C5.95109 11.053 5.62239 10.7243 5.62239 10.3193C5.62239 9.91431 5.95109 9.5856 6.35611 9.5856H13.4194ZM9.05101 5.49947C9.45602 5.49947 9.78473 5.82818 9.78473 6.23319C9.78473 6.6382 9.45602 6.96691 9.05101 6.96691H6.35581C5.9508 6.96691 5.62209 6.6382 5.62209 6.23319C5.62209 5.82818 5.9508 5.49947 6.35581 5.49947H9.05101Z" fill="#969696"></path>
</svg>