<svg width="184" height="37" viewBox="0 0 184 37" fill="none" xmlns="http://www.w3.org/2000/svg">
<path d="M17.1591 0H25.6261V15.2456H20.6308V4.431L14.4118 15.2456H11.2897L5.04565 4.38092V24.2578C5.15792 26.2365 6.02125 28.0972 7.45861 29.4583C8.89598 30.8194 10.7984 31.5777 12.7758 31.5777C14.7532 31.5777 16.6556 30.8194 18.093 29.4583C19.5303 28.0972 20.3937 26.2365 20.5059 24.2578V23.0812H12.8882V18.0744H25.6261V24.1577C25.4809 27.4427 24.0767 30.5448 21.7061 32.8179C19.3355 35.091 16.1814 36.3597 12.9007 36.3597C9.62002 36.3597 6.46584 35.091 4.09527 32.8179C1.72469 30.5448 0.320528 27.4427 0.175293 24.1577V2.12787V0H8.54233L12.9381 7.51015L17.1591 0ZM57.1211 10.5392C56.1521 10.5412 55.1967 10.7682 54.33 11.2026C53.4633 11.637 52.7088 12.2668 52.1259 13.0426C51.8151 12.2479 51.2545 11.5762 50.529 11.129C49.8036 10.6819 48.9526 10.4837 48.1047 10.5643C47.2049 10.5626 46.3149 10.7512 45.4929 11.1179C44.6708 11.4846 43.9353 12.021 43.3342 12.6922V10.9148H38.7386V25.4093H43.3592V16.0217C43.6474 15.6186 44.0206 15.2841 44.4522 15.0419C44.8839 14.7996 45.3634 14.6555 45.8568 14.6198C46.1195 14.5864 46.3863 14.6142 46.6365 14.701C46.8867 14.7877 47.1137 14.9311 47.2997 15.1199C47.4857 15.3088 47.6258 15.538 47.7091 15.7899C47.7924 16.0418 47.8167 16.3096 47.78 16.5724V25.3843H52.4006V16.0217C52.6876 15.6174 53.0605 15.282 53.4923 15.0396C53.9242 14.7971 54.4044 14.6538 54.8982 14.6198C55.1599 14.5915 55.4245 14.6228 55.6724 14.7113C55.9203 14.7998 56.1451 14.9432 56.3299 15.1309C56.5148 15.3186 56.655 15.5457 56.7401 15.7953C56.8252 16.0449 56.853 16.3106 56.8214 16.5724V25.3843H61.3921V14.8951C61.4563 14.3237 61.3938 13.7451 61.2091 13.2007C61.0244 12.6563 60.722 12.1595 60.3235 11.7457C59.9251 11.332 59.4404 11.0116 58.9041 10.8074C58.3678 10.6031 57.7931 10.5201 57.221 10.5643L57.1211 10.5392ZM74.6045 20.2524C74.292 20.6913 73.88 21.0495 73.4023 21.2976C72.9247 21.5457 72.3951 21.6765 71.8571 21.6793C70.3585 21.6793 69.3595 21.0785 69.3595 19.3261V10.8897H64.9637V21.2287C64.9085 21.8596 64.9962 22.4949 65.2202 23.087C65.4442 23.6792 65.7988 24.2131 66.2574 24.6487C66.7161 25.0843 67.267 25.4105 67.869 25.6029C68.471 25.7953 69.1086 25.8489 69.7341 25.7598C70.6683 25.7872 71.5974 25.6136 72.4591 25.2509C73.3207 24.8882 74.0949 24.3447 74.7294 23.657V25.3843H79.35V10.8897H74.7294L74.6045 20.2524ZM82.5969 25.2591H87.2175V5.23208H82.7218L82.5969 25.2591ZM97.4078 21.5541C97.2215 21.5558 97.037 21.5173 96.8668 21.4412C96.6967 21.3651 96.5448 21.2533 96.4216 21.1131C96.2984 20.973 96.2068 20.808 96.1528 20.6292C96.0989 20.4505 96.084 20.2622 96.1091 20.0771V14.9202H99.0313V10.8897H96.2339V6.93438H91.6383V10.8897H89.1407V14.9202H91.6383V21.5041C91.6383 24.2828 93.2368 25.7598 96.184 25.7598C97.394 25.8672 98.6016 25.529 99.5807 24.8085L98.6816 21.3038C98.3599 21.5702 97.9493 21.7044 97.5327 21.6793L97.4078 21.5541ZM103.652 4.03045C102.991 4.09472 102.377 4.40338 101.931 4.89626C101.485 5.38913 101.237 6.03092 101.237 6.69656C101.237 7.36219 101.485 8.00398 101.931 8.49686C102.377 8.98973 102.991 9.29837 103.652 9.36265C104.313 9.29837 104.926 8.98973 105.373 8.49686C105.819 8.00398 106.066 7.36219 106.066 6.69656C106.066 6.03092 105.819 5.38913 105.373 4.89626C104.926 4.40338 104.313 4.09472 103.652 4.03045ZM101.354 25.134H105.975V10.8897H101.479L101.354 25.134ZM119.037 10.6394H123.608V23.8572C123.608 29.7652 118.937 31.042 115.341 31.042C113.016 31.1192 110.743 30.345 108.947 28.864L110.945 25.5595C111.521 26.1303 112.209 26.5743 112.966 26.8631C113.723 27.152 114.532 27.2792 115.341 27.2368C115.809 27.2984 116.285 27.2576 116.736 27.1174C117.187 26.9772 117.602 26.7408 117.953 26.4245C118.304 26.1081 118.583 25.7194 118.77 25.2849C118.957 24.8504 119.048 24.3804 119.037 23.9073V23.0812C118.525 23.7334 117.873 24.2613 117.129 24.6255C116.386 24.9896 115.569 25.1805 114.741 25.184C111.22 25.184 108.372 22.6807 108.372 17.8491C108.372 13.0176 111.12 10.5643 114.741 10.5643C115.569 10.5516 116.389 10.7328 117.135 11.0936C117.88 11.4543 118.532 11.9845 119.037 12.6421V10.6394ZM119.037 15.6461C118.691 15.2491 118.265 14.93 117.788 14.7099C117.31 14.4899 116.791 14.3738 116.265 14.3694C115.41 14.3694 114.591 14.7097 113.987 15.3153C113.382 15.9209 113.043 16.7423 113.043 17.5988C113.043 18.4553 113.382 19.2767 113.987 19.8823C114.591 20.4879 115.41 20.8281 116.265 20.8281C116.792 20.8191 117.312 20.6984 117.79 20.4741C118.268 20.2497 118.693 19.9268 119.037 19.5264V15.6461ZM140.167 16.0717V25.134H135.547V23.707C134.963 24.3031 134.261 24.7711 133.487 25.0813C132.714 25.3916 131.884 25.5374 131.051 25.5095C130.406 25.54 129.761 25.4389 129.156 25.2123C128.551 24.9857 127.998 24.6383 127.531 24.1912C127.064 23.7442 126.693 23.2067 126.439 22.6114C126.185 22.0161 126.055 21.3753 126.056 20.728C126.038 20.0814 126.158 19.4386 126.408 18.8422C126.658 18.2458 127.031 17.7095 127.504 17.269C127.976 16.8286 128.537 16.494 129.149 16.2875C129.76 16.0811 130.409 16.0075 131.051 16.0717C131.876 16.0133 132.705 16.1328 133.48 16.4221C134.255 16.7115 134.96 17.1639 135.547 17.749V16.0217C135.547 14.7449 134.473 13.9188 132.624 13.9188C131.116 13.9386 129.661 14.4778 128.503 15.4459L126.855 12.542C128.714 11.0434 131.038 10.2461 133.424 10.2889C137.02 10.5643 140.292 11.816 140.292 16.3221L140.167 16.0717ZM135.547 20.1272C135.226 19.7892 134.838 19.523 134.407 19.3461C133.977 19.1692 133.514 19.0856 133.049 19.1008C131.825 19.1008 130.751 19.6516 130.751 20.8031C130.751 21.9547 131.825 22.4804 133.049 22.4804C133.516 22.4957 133.981 22.4097 134.412 22.2282C134.843 22.0468 135.23 21.7741 135.547 21.429V20.1272ZM162.121 10.5643C161.152 10.5662 160.197 10.7933 159.33 11.2276C158.463 11.662 157.709 12.2918 157.126 13.0677C156.815 12.2502 156.241 11.5601 155.494 11.1066C154.748 10.6532 153.872 10.4623 153.005 10.5643C152.105 10.5626 151.215 10.7512 150.393 11.1179C149.571 11.4846 148.835 12.021 148.234 12.6922V10.9148H143.614V25.4093H148.234V16.0217C148.523 15.6186 148.896 15.2841 149.327 15.0419C149.759 14.7996 150.239 14.6555 150.732 14.6198C150.995 14.5864 151.262 14.6142 151.512 14.701C151.762 14.7877 151.989 14.9311 152.175 15.1199C152.361 15.3088 152.501 15.538 152.584 15.7899C152.668 16.0418 152.692 16.3096 152.655 16.5724V25.3843H157.276V16.0217C157.563 15.6174 157.936 15.282 158.368 15.0396C158.8 14.7971 159.28 14.6538 159.773 14.6198C160.035 14.5915 160.3 14.6228 160.548 14.7113C160.796 14.7998 161.02 14.9432 161.205 15.1309C161.39 15.3186 161.53 15.5457 161.615 15.7953C161.7 16.0449 161.728 16.3106 161.697 16.5724V25.3843H166.267V14.8951C166.331 14.326 166.269 13.7497 166.086 13.2072C165.902 12.6647 165.602 12.1693 165.207 11.756C164.811 11.3428 164.33 11.0218 163.796 10.8158C163.263 10.6099 162.691 10.524 162.121 10.5643ZM184.025 19.6265H173.71C173.924 20.404 174.404 21.0811 175.066 21.5389C175.729 21.9967 176.531 22.206 177.332 22.1299C178.63 22.1138 179.89 21.6842 180.928 20.9032L182.976 23.8322C181.245 25.156 179.109 25.8372 176.932 25.7598C175.424 25.8187 173.934 25.4199 172.656 24.6156C171.378 23.8112 170.372 22.6389 169.77 21.252C169.168 19.8651 168.997 18.3283 169.281 16.8427C169.565 15.3572 170.29 13.9922 171.361 12.9264C172.431 11.8606 173.798 11.1437 175.282 10.8696C176.766 10.5955 178.298 10.7768 179.678 11.39C181.057 12.0032 182.22 13.0195 183.014 14.306C183.807 15.5925 184.195 17.0892 184.125 18.6001L184.025 19.6265ZM179.605 16.6225C179.535 15.8936 179.181 15.2217 178.62 14.7529C178.059 14.2842 177.335 14.0564 176.607 14.1191C175.891 14.0826 175.187 14.3211 174.64 14.7862C174.092 15.2512 173.742 15.9078 173.66 16.6225H179.605Z" fill="#6FF3FC"/>
</svg>
